<svg width="20" height="22" viewBox="0 0 20 22" fill="none" xmlns="http://www.w3.org/2000/svg">
<path d="M19.4762 5.25358C18.0829 5.25354 16.7467 4.70002 15.7615 3.71479C14.7763 2.72955 14.2228 1.3933 14.2229 0H10.4695V14.6974C10.4688 15.3675 10.2572 16.0203 9.86475 16.5635C9.47227 17.1066 8.91881 17.5124 8.28281 17.7234C7.64681 17.9344 6.96053 17.9399 6.32124 17.7391C5.68195 17.5382 5.12209 17.1413 4.721 16.6045C4.3199 16.0677 4.09793 15.4183 4.08654 14.7483C4.07515 14.0783 4.27492 13.4217 4.65753 12.8716C5.04014 12.3215 5.58619 11.9058 6.21828 11.6833C6.85037 11.4609 7.53644 11.443 8.17925 11.6323V7.98371C6.81317 7.79951 5.4234 8.03644 4.19553 8.66289C2.96765 9.28933 1.96011 10.2755 1.30745 11.4896C0.654777 12.7037 0.388046 14.0881 0.542869 15.4578C0.697692 16.8275 1.2667 18.1174 2.17391 19.1552C3.08113 20.193 4.28336 20.9294 5.62009 21.266C6.95681 21.6025 8.3644 21.5233 9.6549 21.0388C10.9454 20.5543 12.0574 19.6876 12.8424 18.5545C13.6273 17.4214 14.0479 16.0758 14.048 14.6974L14.1575 7.26833C15.6997 8.40042 17.5635 9.00955 19.4766 9.0067L19.4762 5.25358Z" fill="white"/>
</svg>
